<svg width="64" height="64" viewBox="0 0 64 64" fill="none" xmlns="http://www.w3.org/2000/svg">
  <defs>
    <linearGradient id="bg" x1="8" y1="6" x2="56" y2="58" gradientUnits="userSpaceOnUse">
      <stop stop-color="#0B1220" />
      <stop offset="1" stop-color="#05070C" />
    </linearGradient>
    <radialGradient id="glow" cx="0" cy="0" r="1" gradientUnits="userSpaceOnUse" gradientTransform="translate(32 16) rotate(90) scale(28)">
      <stop stop-color="#F59E0B" stop-opacity="0.26" />
      <stop offset="1" stop-color="#F59E0B" stop-opacity="0" />
    </radialGradient>
    <linearGradient id="frame" x1="10" y1="10" x2="54" y2="54" gradientUnits="userSpaceOnUse">
      <stop stop-color="#FCD68A" />
      <stop offset="0.5" stop-color="#F59E0B" />
      <stop offset="1" stop-color="#B45309" />
    </linearGradient>
    <linearGradient id="badge" x1="20" y1="18" x2="44" y2="48" gradientUnits="userSpaceOnUse">
      <stop stop-color="#141D2E" />
      <stop offset="1" stop-color="#0A0F1A" />
    </linearGradient>
    <linearGradient id="glyph" x1="24" y1="23" x2="42" y2="41" gradientUnits="userSpaceOnUse">
      <stop stop-color="#FFF7E3" />
      <stop offset="1" stop-color="#F6C15A" />
    </linearGradient>
  </defs>

  <rect x="4" y="4" width="56" height="56" rx="16" fill="url(#bg)" />
  <rect x="4" y="4" width="56" height="56" rx="16" fill="url(#glow)" />
  <rect x="5.25" y="5.25" width="53.5" height="53.5" rx="14.75" stroke="url(#frame)" stroke-opacity="0.6" stroke-width="1.5" />

  <path
    d="M32 14L46 20V31.5C46 40.6 40.1 46.6 32 50C23.9 46.6 18 40.6 18 31.5V20L32 14Z"
    fill="url(#badge)"
    stroke="url(#frame)"
    stroke-width="1.5"
  />

  <rect x="23.4" y="23.8" width="3.8" height="15.6" rx="1" fill="url(#glyph)" />
  <rect x="23.4" y="23.8" width="11" height="3.8" rx="1" fill="url(#glyph)" />
  <rect x="23.4" y="30.8" width="8.6" height="3.4" rx="1" fill="url(#glyph)" />

  <rect x="35.2" y="23.8" width="3.8" height="15.6" rx="1" fill="url(#glyph)" />
  <rect x="35.2" y="23.8" width="8.9" height="3.8" rx="1" fill="url(#glyph)" />
  <rect x="35.2" y="30.8" width="7.2" height="3.4" rx="1" fill="url(#glyph)" />

  <circle cx="13" cy="13" r="1.2" fill="#F59E0B" fill-opacity="0.7" />
  <circle cx="51" cy="51" r="1.2" fill="#F59E0B" fill-opacity="0.5" />
</svg>
