<svg width="64" height="64" viewBox="0 0 64 64" fill="none" xmlns="http://www.w3.org/2000/svg">
  <rect x="4" y="4" width="56" height="56" rx="18" fill="#FFF7ED"/>
  <path
    d="M32 13L45.5 19.1V31.4C45.5 42.2 39.3 49 32 51.8C24.7 49 18.5 42.2 18.5 31.4V19.1L32 13Z"
    fill="#0F172A"
  />
  <path
    d="M32 20.3L39.1 23.7V30.2C39.1 36.6 35.4 40.8 32 42.6C28.6 40.8 24.9 36.6 24.9 30.2V23.7L32 20.3Z"
    fill="url(#flowfic_icon_gradient)"
  />
  <path d="M32 22.1V40.7" stroke="#0F172A" stroke-width="2.6" stroke-linecap="round"/>
  <path
    d="M28.4 30.8C30.1 29.4 31.3 28.7 32 28.7C32.7 28.7 33.9 29.4 35.6 30.8"
    stroke="#0F172A"
    stroke-width="2.6"
    stroke-linecap="round"
  />
  <defs>
    <linearGradient id="flowfic_icon_gradient" x1="20" y1="16" x2="41" y2="44" gradientUnits="userSpaceOnUse">
      <stop stop-color="#F97316"/>
      <stop offset="1" stop-color="#FB7185"/>
    </linearGradient>
  </defs>
</svg>
